Bolt 3D SBS 2008 1080p.BluRay.x264.DTS.Half.Side-by-Side.[PHD]

video 3D

  http://www.imdb.com/title/tt0397892/

INFO <> INFO <> INFO <> INFO

 Format : Matroska
 File size : 4.65 GiB
 Duration : 1h 36mn
 Overall bit rate : 6 900 Kbps
 Movie name : Bolt (200 by Free4Hunter
 Encoded date : UTC 2010-12-19 12:51:40

Video:
 ID : 1
 Format : AVC
 Format/Info : Advanced Video Codec
 Format profile : High@L4.0
 Format settings, CABAC : Yes
 Format settings, ReFrames : 4 frames
 Codec ID : V_MPEG4/ISO/AVC
 Duration : 1h 36mn
 Bit rate : 4 750 Kbps
 Width : 1 920 pixels
 Height : 1 080 pixels
 Display aspect ratio : 16:9
 Frame rate : 23.976 fps
 Color space : YUV
 Chroma subsampling : 4:2:0
 Bit depth : 8 bits
 Scan type : Progressive
 Bits/(Pixel*Frame) : 0.096
 Stream size : 3.11 GiB (67%)

Audio #1
 ID : 2
 Format : AC-3
 Format/Info : Audio Coding 3
 Mode extension : CM (complete main)
 Codec ID : A_AC3
 Duration : 1h 36mn
 Bit rate mode : Constant
 Bit rate : 640 Kbps
 Channel(s) : 6 channels
 Channel positions : Front: L C R, Side: L R, LFE
 Sampling rate : 48.0 KHz
 Bit depth : 16 bits
 Video delay : 1s 0ms
 Stream size : 441 MiB (9%)
 Title : AC3-EX 5.1 640 kbps ╨ö╤â╨▒╨╗╨╕╤Ç╨╛╨▓╨░╨╜╨╜╤ï╨╣ (Blu-ray CEE)
 Language : Russian

Audio #2
 ID : 3
 Format : DTS
 Format/Info : Digital Theater Systems
 Format profile : ES
 Codec ID : A_DTS
 Duration : 1h 36mn
 Bit rate mode : Constant
 Bit rate : 1 510 Kbps
 Channel(s) : 6 channels
 Channel positions : Front: L C R, Side: L R, LFE
 Sampling rate : 48.0 KHz
 Bit depth : 24 bits
 Video delay : 1s 0ms
 Stream size : 1.02 GiB (22%)
 Title : DTS-ES 5.1 1536 kbps
 Language : English